<svg width="210" height="70" viewBox="0 0 210 70" fill="none" xmlns="http://www.w3.org/2000/svg">
<rect x="1" y="1" width="208" height="68" rx="3" fill="white" stroke="#EB5B55" stroke-width="2"/>
<path fill-rule="evenodd" clip-rule="evenodd" d="M38.604 25.0987C38.604 25.0987 23.3846 16.6162 22.4939 16.1156C21.5977 15.6178 20.707 15.9187 20.707 16.9607V35.0718V53.5471C20.707 54.329 21.3428 54.6651 22.1228 54.2362C22.8972 53.8003 38.6054 45.0449 38.6054 45.0449L41.8081 43.2618C43.525 42.3028 46.9588 40.3903 46.9588 40.3903C46.9588 40.3903 54.0447 36.4401 54.9872 35.9142C55.9311 35.391 55.8386 34.6696 55.046 34.2562C54.2506 33.8428 46.9588 29.7506 46.9588 29.7506L38.604 25.0987Z" fill="#EB5B55" stroke="white"/>
<path fill-rule="evenodd" clip-rule="evenodd" d="M41.4142 35.0085L21.4027 15.9299C20.9349 16.0382 20.6562 16.3884 20.6562 16.9804V35.0071V53.4909C20.6562 53.9901 20.8579 54.2896 21.103 54.3923L41.4142 35.0085Z" fill="#EB5B55" stroke="white"/>
<path fill-rule="evenodd" clip-rule="evenodd" d="M21.9269 54.2854L33.4956 47.894C36.344 46.3049 38.6028 45.0449 38.6028 45.0449L47.0149 40.4873L41.4162 35.0114L21.1035 54.3979C21.3304 54.4696 21.7295 54.4274 22.0418 54.2728" fill="#EB5B55"/>
<path d="M21.9269 54.2854L33.4956 47.894C36.344 46.3049 38.6028 45.0449 38.6028 45.0449L47.0149 40.4873L41.4162 35.0114L21.1035 54.3979C21.3304 54.4696 21.7295 54.4274 22.0418 54.2728" stroke="white"/>
<path fill-rule="evenodd" clip-rule="evenodd" d="M22.4656 16.1029C22.0805 15.8933 21.6982 15.8343 21.3887 15.9172L41.4171 35.0268L46.957 29.7505L38.6037 25.0972C38.6037 25.0972 30.7321 20.7069 25.9792 18.0576L22.4656 16.1029Z" fill="#EB5B55" stroke="white"/>
<path d="M74.544 36.176C75.52 36.176 76.376 36.384 77.112 36.8C77.864 37.2 78.44 37.768 78.84 38.504C79.256 39.24 79.464 40.088 79.464 41.048C79.464 42.008 79.256 42.848 78.84 43.568C78.424 44.288 77.832 44.848 77.064 45.248C76.312 45.648 75.44 45.848 74.448 45.848H70.224C70.16 45.848 70.128 45.88 70.128 45.944V52.76C70.128 52.92 70.048 53 69.888 53H68.064C67.904 53 67.824 52.92 67.824 52.76V36.416C67.824 36.256 67.904 36.176 68.064 36.176H74.544ZM74.232 43.976C75.112 43.976 75.816 43.712 76.344 43.184C76.888 42.656 77.16 41.96 77.16 41.096C77.16 40.216 76.888 39.512 76.344 38.984C75.816 38.44 75.112 38.168 74.232 38.168H70.224C70.16 38.168 70.128 38.2 70.128 38.264V43.88C70.128 43.944 70.16 43.976 70.224 43.976H74.232ZM81.6466 53C81.4866 53 81.4066 52.92 81.4066 52.76V36.44C81.4066 36.28 81.4866 36.2 81.6466 36.2H83.4706C83.6306 36.2 83.7106 36.28 83.7106 36.44V52.76C83.7106 52.92 83.6306 53 83.4706 53H81.6466ZM91.019 40.592C91.995 40.592 92.843 40.768 93.563 41.12C94.299 41.456 94.859 41.936 95.243 42.56C95.643 43.168 95.843 43.864 95.843 44.648V52.76C95.843 52.92 95.763 53 95.603 53H93.779C93.619 53 93.539 52.92 93.539 52.76V51.896C93.539 51.816 93.499 51.8 93.419 51.848C93.003 52.28 92.491 52.616 91.883 52.856C91.291 53.08 90.627 53.192 89.891 53.192C88.707 53.192 87.723 52.896 86.939 52.304C86.171 51.696 85.787 50.784 85.787 49.568C85.787 48.32 86.219 47.344 87.083 46.64C87.963 45.92 89.187 45.56 90.755 45.56H93.443C93.507 45.56 93.539 45.528 93.539 45.464V44.816C93.539 44.112 93.331 43.568 92.915 43.184C92.515 42.784 91.899 42.584 91.067 42.584C90.395 42.584 89.843 42.72 89.411 42.992C88.995 43.248 88.739 43.6 88.643 44.048C88.595 44.208 88.499 44.28 88.355 44.264L86.411 44C86.251 43.968 86.179 43.904 86.195 43.808C86.323 42.864 86.827 42.096 87.707 41.504C88.587 40.896 89.691 40.592 91.019 40.592ZM90.395 51.248C91.243 51.248 91.979 51.024 92.603 50.576C93.227 50.128 93.539 49.56 93.539 48.872V47.456C93.539 47.392 93.507 47.36 93.443 47.36H91.187C90.243 47.36 89.491 47.544 88.931 47.912C88.371 48.28 88.091 48.792 88.091 49.448C88.091 50.04 88.299 50.488 88.715 50.792C89.147 51.096 89.707 51.248 90.395 51.248ZM97.8825 57.776C97.7705 57.776 97.7145 57.696 97.7145 57.536V56.12C97.7145 55.96 97.7945 55.88 97.9545 55.88H98.0025C98.6425 55.864 99.1465 55.784 99.5145 55.64C99.8825 55.496 100.187 55.224 100.427 54.824C100.667 54.44 100.899 53.856 101.123 53.072C101.139 53.056 101.139 53.032 101.123 53C101.123 52.952 101.123 52.928 101.123 52.928L97.1145 41.048L97.0905 40.952C97.0905 40.84 97.1625 40.784 97.3065 40.784H99.2505C99.3945 40.784 99.4905 40.848 99.5385 40.976L102.251 50.024C102.267 50.056 102.291 50.072 102.323 50.072C102.355 50.072 102.379 50.056 102.395 50.024L105.083 40.976C105.131 40.848 105.227 40.784 105.371 40.784H107.267C107.443 40.784 107.507 40.872 107.459 41.048L103.091 53.84C102.723 54.944 102.355 55.76 101.987 56.288C101.619 56.832 101.139 57.216 100.547 57.44C99.9545 57.664 99.1225 57.776 98.0505 57.776H97.8825ZM118.933 53.192C117.701 53.192 116.629 53 115.717 52.616C114.821 52.232 114.125 51.688 113.629 50.984C113.149 50.28 112.909 49.456 112.909 48.512V47.816C112.909 47.656 112.989 47.576 113.149 47.576H114.901C115.061 47.576 115.141 47.656 115.141 47.816V48.392C115.141 49.208 115.493 49.88 116.197 50.408C116.901 50.936 117.869 51.2 119.101 51.2C120.205 51.2 121.037 50.968 121.597 50.504C122.157 50.04 122.437 49.432 122.437 48.68C122.437 48.184 122.293 47.76 122.005 47.408C121.717 47.056 121.293 46.736 120.733 46.448C120.189 46.144 119.389 45.784 118.333 45.368C117.165 44.92 116.237 44.512 115.549 44.144C114.877 43.776 114.317 43.296 113.869 42.704C113.421 42.096 113.197 41.336 113.197 40.424C113.197 39.048 113.685 37.968 114.661 37.184C115.653 36.4 116.989 36.008 118.669 36.008C119.853 36.008 120.893 36.208 121.789 36.608C122.685 37.008 123.373 37.568 123.853 38.288C124.349 39.008 124.597 39.84 124.597 40.784V41.264C124.597 41.424 124.517 41.504 124.357 41.504H122.557C122.397 41.504 122.317 41.424 122.317 41.264V40.904C122.317 40.072 121.981 39.384 121.309 38.84C120.653 38.28 119.741 38 118.573 38C117.581 38 116.813 38.208 116.269 38.624C115.725 39.024 115.453 39.608 115.453 40.376C115.453 40.904 115.589 41.336 115.861 41.672C116.133 42.008 116.533 42.312 117.061 42.584C117.605 42.84 118.429 43.176 119.533 43.592C120.669 44.04 121.589 44.456 122.293 44.84C122.997 45.208 123.581 45.704 124.045 46.328C124.509 46.936 124.741 47.696 124.741 48.608C124.741 50.016 124.221 51.136 123.181 51.968C122.157 52.784 120.741 53.192 118.933 53.192ZM133.095 42.44C133.095 42.6 133.015 42.68 132.855 42.68H130.263C130.199 42.68 130.167 42.712 130.167 42.776V49.136C130.167 49.808 130.319 50.296 130.623 50.6C130.927 50.888 131.399 51.032 132.039 51.032H132.735C132.895 51.032 132.975 51.112 132.975 51.272V52.76C132.975 52.92 132.895 53 132.735 53C132.223 53.032 131.855 53.048 131.631 53.048C130.415 53.048 129.495 52.832 128.871 52.4C128.263 51.952 127.959 51.136 127.959 49.952V42.776C127.959 42.712 127.927 42.68 127.863 42.68H126.399C126.239 42.68 126.159 42.6 126.159 42.44V41.024C126.159 40.864 126.239 40.784 126.399 40.784H127.863C127.927 40.784 127.959 40.752 127.959 40.688V37.856C127.959 37.696 128.039 37.616 128.199 37.616H129.927C130.087 37.616 130.167 37.696 130.167 37.856V40.688C130.167 40.752 130.199 40.784 130.263 40.784H132.855C133.015 40.784 133.095 40.864 133.095 41.024V42.44ZM140.141 53.192C138.957 53.192 137.925 52.896 137.045 52.304C136.165 51.696 135.549 50.856 135.197 49.784C134.909 48.92 134.765 47.944 134.765 46.856C134.765 45.72 134.901 44.76 135.173 43.976C135.525 42.92 136.141 42.096 137.021 41.504C137.901 40.896 138.949 40.592 140.165 40.592C141.317 40.592 142.317 40.896 143.165 41.504C144.029 42.096 144.645 42.912 145.013 43.952C145.301 44.768 145.445 45.728 145.445 46.832C145.445 47.952 145.301 48.936 145.013 49.784C144.661 50.856 144.053 51.696 143.189 52.304C142.325 52.896 141.309 53.192 140.141 53.192ZM140.141 51.2C140.781 51.2 141.341 51.024 141.821 50.672C142.301 50.304 142.645 49.792 142.853 49.136C143.029 48.528 143.117 47.776 143.117 46.88C143.117 45.984 143.037 45.24 142.877 44.648C142.669 43.992 142.325 43.488 141.845 43.136C141.365 42.768 140.781 42.584 140.093 42.584C139.437 42.584 138.869 42.768 138.389 43.136C137.909 43.488 137.565 43.992 137.357 44.648C137.181 45.208 137.093 45.952 137.093 46.88C137.093 47.808 137.181 48.56 137.357 49.136C137.549 49.792 137.885 50.304 138.365 50.672C138.861 51.024 139.453 51.2 140.141 51.2ZM153.313 40.664C153.825 40.664 154.289 40.768 154.705 40.976C154.817 41.024 154.857 41.12 154.825 41.264L154.441 43.064C154.425 43.208 154.329 43.256 154.153 43.208C153.881 43.096 153.561 43.04 153.193 43.04L152.857 43.064C152.105 43.096 151.481 43.36 150.985 43.856C150.505 44.336 150.265 44.968 150.265 45.752V52.76C150.265 52.92 150.185 53 150.025 53H148.201C148.041 53 147.961 52.92 147.961 52.76V41.024C147.961 40.864 148.041 40.784 148.201 40.784H150.025C150.185 40.784 150.265 40.864 150.265 41.024V42.296C150.265 42.344 150.273 42.376 150.289 42.392C150.321 42.392 150.345 42.376 150.361 42.344C151.081 41.224 152.065 40.664 153.313 40.664ZM166.068 45.368C166.132 46.024 166.156 46.76 166.14 47.576C166.14 47.736 166.06 47.816 165.9 47.816H158.244C158.18 47.816 158.148 47.848 158.148 47.912C158.148 48.456 158.196 48.872 158.292 49.16C158.468 49.8 158.82 50.304 159.348 50.672C159.892 51.024 160.572 51.2 161.388 51.2C162.572 51.2 163.484 50.712 164.124 49.736C164.204 49.576 164.308 49.552 164.436 49.664L165.804 50.576C165.916 50.672 165.94 50.776 165.876 50.888C165.428 51.608 164.788 52.176 163.956 52.592C163.14 53.008 162.212 53.216 161.172 53.216C160.004 53.216 159.02 52.96 158.22 52.448C157.42 51.936 156.82 51.208 156.42 50.264C156.036 49.32 155.844 48.176 155.844 46.832C155.844 45.664 155.932 44.776 156.108 44.168C156.396 43.064 156.972 42.192 157.836 41.552C158.7 40.912 159.748 40.592 160.98 40.592C162.596 40.592 163.804 41 164.604 41.816C165.404 42.616 165.892 43.8 166.068 45.368ZM160.98 42.584C160.292 42.584 159.724 42.76 159.276 43.112C158.828 43.448 158.524 43.904 158.364 44.48C158.252 44.832 158.18 45.28 158.148 45.824C158.148 45.888 158.18 45.92 158.244 45.92H163.74C163.804 45.92 163.836 45.888 163.836 45.824C163.804 45.296 163.756 44.904 163.692 44.648C163.532 44.024 163.212 43.528 162.732 43.16C162.268 42.776 161.684 42.584 160.98 42.584Z" fill="#EB5B55"/>
<path d="M72.591 25C72.513 25 72.461 24.9653 72.435 24.896L71.967 23.375C71.9583 23.349 71.941 23.336 71.915 23.336H68.262C68.236 23.336 68.2187 23.349 68.21 23.375L67.742 24.896C67.716 24.9653 67.664 25 67.586 25H66.533C66.4377 25 66.403 24.9523 66.429 24.857L69.276 16.004C69.302 15.9347 69.354 15.9 69.432 15.9H70.732C70.81 15.9 70.862 15.9347 70.888 16.004L73.761 24.857L73.774 24.909C73.774 24.9697 73.735 25 73.657 25H72.591ZM68.535 22.283C68.5263 22.3003 68.5263 22.3177 68.535 22.335C68.5523 22.3437 68.5697 22.348 68.587 22.348H71.577C71.5943 22.348 71.6073 22.3437 71.616 22.335C71.6333 22.3177 71.6377 22.3003 71.629 22.283L70.121 17.46C70.1123 17.4427 70.0993 17.434 70.082 17.434C70.0647 17.434 70.0517 17.4427 70.043 17.46L68.535 22.283ZM75.8581 25C75.7801 25 75.7281 24.9653 75.7021 24.896L73.5831 18.526L73.5701 18.474C73.5701 18.4133 73.6091 18.383 73.6871 18.383H74.7791C74.8571 18.383 74.9091 18.4177 74.9351 18.487L76.3651 23.193C76.3737 23.2103 76.3867 23.219 76.4041 23.219C76.4214 23.219 76.4344 23.2103 76.4431 23.193L77.8601 18.487C77.8861 18.4177 77.9381 18.383 78.0161 18.383L79.1081 18.396C79.2034 18.396 79.2381 18.4437 79.2121 18.539L77.1061 24.896C77.0801 24.9653 77.0281 25 76.9501 25H75.8581ZM82.204 18.279C82.7326 18.279 83.192 18.3743 83.582 18.565C83.9806 18.747 84.284 19.007 84.492 19.345C84.7086 19.6743 84.817 20.0513 84.817 20.476V24.87C84.817 24.9567 84.7736 25 84.687 25H83.699C83.6123 25 83.569 24.9567 83.569 24.87V24.402C83.569 24.3587 83.5473 24.35 83.504 24.376C83.2786 24.61 83.0013 24.792 82.672 24.922C82.3513 25.0433 81.9916 25.104 81.593 25.104C80.9516 25.104 80.4186 24.9437 79.994 24.623C79.578 24.2937 79.37 23.7997 79.37 23.141C79.37 22.465 79.604 21.9363 80.072 21.555C80.5486 21.165 81.2116 20.97 82.061 20.97H83.517C83.5516 20.97 83.569 20.9527 83.569 20.918V20.567C83.569 20.1857 83.4563 19.891 83.231 19.683C83.0143 19.4663 82.6806 19.358 82.23 19.358C81.866 19.358 81.567 19.4317 81.333 19.579C81.1076 19.7177 80.969 19.9083 80.917 20.151C80.891 20.2377 80.839 20.2767 80.761 20.268L79.708 20.125C79.6213 20.1077 79.5823 20.073 79.591 20.021C79.6603 19.5097 79.9333 19.0937 80.41 18.773C80.8866 18.4437 81.4846 18.279 82.204 18.279ZM81.866 24.051C82.3253 24.051 82.724 23.9297 83.062 23.687C83.4 23.4443 83.569 23.1367 83.569 22.764V21.997C83.569 21.9623 83.5516 21.945 83.517 21.945H82.295C81.7836 21.945 81.3763 22.0447 81.073 22.244C80.7696 22.4433 80.618 22.7207 80.618 23.076C80.618 23.3967 80.7306 23.6393 80.956 23.804C81.19 23.9687 81.4933 24.051 81.866 24.051ZM86.7558 17.343C86.5131 17.343 86.3138 17.265 86.1578 17.109C86.0018 16.953 85.9238 16.7537 85.9238 16.511C85.9238 16.2683 86.0018 16.069 86.1578 15.913C86.3138 15.757 86.5131 15.679 86.7558 15.679C86.9985 15.679 87.1978 15.757 87.3538 15.913C87.5098 16.069 87.5878 16.2683 87.5878 16.511C87.5878 16.7537 87.5098 16.953 87.3538 17.109C87.1978 17.265 86.9985 17.343 86.7558 17.343ZM86.2358 24.987C86.1491 24.987 86.1058 24.9437 86.1058 24.857V18.513C86.1058 18.4263 86.1491 18.383 86.2358 18.383H87.2238C87.3105 18.383 87.3538 18.4263 87.3538 18.513V24.857C87.3538 24.9437 87.3105 24.987 87.2238 24.987H86.2358ZM88.9453 25C88.8586 25 88.8153 24.9567 88.8153 24.87V16.03C88.8153 15.9433 88.8586 15.9 88.9453 15.9H89.9333C90.0199 15.9 90.0633 15.9433 90.0633 16.03V24.87C90.0633 24.9567 90.0199 25 89.9333 25H88.9453ZM93.7928 18.279C94.3215 18.279 94.7808 18.3743 95.1708 18.565C95.5695 18.747 95.8728 19.007 96.0808 19.345C96.2975 19.6743 96.4058 20.0513 96.4058 20.476V24.87C96.4058 24.9567 96.3625 25 96.2758 25H95.2878C95.2012 25 95.1578 24.9567 95.1578 24.87V24.402C95.1578 24.3587 95.1362 24.35 95.0928 24.376C94.8675 24.61 94.5902 24.792 94.2608 24.922C93.9402 25.0433 93.5805 25.104 93.1818 25.104C92.5405 25.104 92.0075 24.9437 91.5828 24.623C91.1668 24.2937 90.9588 23.7997 90.9588 23.141C90.9588 22.465 91.1928 21.9363 91.6608 21.555C92.1375 21.165 92.8005 20.97 93.6498 20.97H95.1058C95.1405 20.97 95.1578 20.9527 95.1578 20.918V20.567C95.1578 20.1857 95.0452 19.891 94.8198 19.683C94.6032 19.4663 94.2695 19.358 93.8188 19.358C93.4548 19.358 93.1558 19.4317 92.9218 19.579C92.6965 19.7177 92.5578 19.9083 92.5058 20.151C92.4798 20.2377 92.4278 20.2767 92.3498 20.268L91.2968 20.125C91.2102 20.1077 91.1712 20.073 91.1798 20.021C91.2492 19.5097 91.5222 19.0937 91.9988 18.773C92.4755 18.4437 93.0735 18.279 93.7928 18.279ZM93.4548 24.051C93.9142 24.051 94.3128 23.9297 94.6508 23.687C94.9888 23.4443 95.1578 23.1367 95.1578 22.764V21.997C95.1578 21.9623 95.1405 21.945 95.1058 21.945H93.8838C93.3725 21.945 92.9652 22.0447 92.6618 22.244C92.3585 22.4433 92.2068 22.7207 92.2068 23.076C92.2068 23.3967 92.3195 23.6393 92.5448 23.804C92.7788 23.9687 93.0822 24.051 93.4548 24.051ZM102.934 20.099C103.072 20.541 103.142 21.0653 103.142 21.672C103.142 22.322 103.059 22.8767 102.895 23.336C102.704 23.8993 102.401 24.337 101.985 24.649C101.577 24.9523 101.062 25.104 100.438 25.104C100.134 25.104 99.8527 25.0433 99.5927 24.922C99.3327 24.8007 99.1073 24.6317 98.9167 24.415C98.8993 24.3977 98.882 24.3933 98.8647 24.402C98.856 24.4107 98.8517 24.4237 98.8517 24.441V24.87C98.8517 24.9567 98.8083 25 98.7217 25H97.7337C97.647 25 97.6037 24.9567 97.6037 24.87V16.03C97.6037 15.9433 97.647 15.9 97.7337 15.9H98.7217C98.8083 15.9 98.8517 15.9433 98.8517 16.03V18.929C98.8517 18.9463 98.856 18.9593 98.8647 18.968C98.882 18.9767 98.8993 18.9723 98.9167 18.955C99.1073 18.7383 99.3327 18.5737 99.5927 18.461C99.8613 18.3397 100.143 18.279 100.438 18.279C101.088 18.279 101.621 18.4393 102.037 18.76C102.453 19.0807 102.752 19.527 102.934 20.099ZM101.556 23.31C101.772 22.9027 101.881 22.3653 101.881 21.698C101.881 20.9873 101.742 20.4153 101.465 19.982C101.213 19.566 100.828 19.358 100.308 19.358C99.8223 19.358 99.454 19.579 99.2027 20.021C98.9773 20.4197 98.8647 20.9743 98.8647 21.685C98.8647 22.3957 98.9687 22.9417 99.1767 23.323C99.4367 23.791 99.818 24.025 100.321 24.025C100.893 24.025 101.304 23.7867 101.556 23.31ZM104.406 25C104.32 25 104.276 24.9567 104.276 24.87V16.03C104.276 15.9433 104.32 15.9 104.406 15.9H105.394C105.481 15.9 105.524 15.9433 105.524 16.03V24.87C105.524 24.9567 105.481 25 105.394 25H104.406ZM112.192 20.866C112.226 21.2213 112.239 21.62 112.231 22.062C112.231 22.1487 112.187 22.192 112.101 22.192H107.954C107.919 22.192 107.902 22.2093 107.902 22.244C107.902 22.5387 107.928 22.764 107.98 22.92C108.075 23.2667 108.266 23.5397 108.552 23.739C108.846 23.9297 109.215 24.025 109.657 24.025C110.298 24.025 110.792 23.7607 111.139 23.232C111.182 23.1453 111.238 23.1323 111.308 23.193L112.049 23.687C112.109 23.739 112.122 23.7953 112.088 23.856C111.845 24.246 111.498 24.5537 111.048 24.779C110.606 25.0043 110.103 25.117 109.54 25.117C108.907 25.117 108.374 24.9783 107.941 24.701C107.507 24.4237 107.182 24.0293 106.966 23.518C106.758 23.0067 106.654 22.387 106.654 21.659C106.654 21.0263 106.701 20.5453 106.797 20.216C106.953 19.618 107.265 19.1457 107.733 18.799C108.201 18.4523 108.768 18.279 109.436 18.279C110.311 18.279 110.965 18.5 111.399 18.942C111.832 19.3753 112.096 20.0167 112.192 20.866ZM109.436 19.358C109.063 19.358 108.755 19.4533 108.513 19.644C108.27 19.826 108.105 20.073 108.019 20.385C107.958 20.5757 107.919 20.8183 107.902 21.113C107.902 21.1477 107.919 21.165 107.954 21.165H110.931C110.965 21.165 110.983 21.1477 110.983 21.113C110.965 20.827 110.939 20.6147 110.905 20.476C110.818 20.138 110.645 19.8693 110.385 19.67C110.133 19.462 109.817 19.358 109.436 19.358ZM116.162 17.343C115.919 17.343 115.72 17.265 115.564 17.109C115.408 16.953 115.33 16.7537 115.33 16.511C115.33 16.2683 115.408 16.069 115.564 15.913C115.72 15.757 115.919 15.679 116.162 15.679C116.405 15.679 116.604 15.757 116.76 15.913C116.916 16.069 116.994 16.2683 116.994 16.511C116.994 16.7537 116.916 16.953 116.76 17.109C116.604 17.265 116.405 17.343 116.162 17.343ZM115.642 24.987C115.555 24.987 115.512 24.9437 115.512 24.857V18.513C115.512 18.4263 115.555 18.383 115.642 18.383H116.63C116.717 18.383 116.76 18.4263 116.76 18.513V24.857C116.76 24.9437 116.717 24.987 116.63 24.987H115.642ZM121.173 18.292C121.883 18.292 122.447 18.5 122.863 18.916C123.279 19.3233 123.487 19.878 123.487 20.58V24.87C123.487 24.9567 123.443 25 123.357 25H122.369C122.282 25 122.239 24.9567 122.239 24.87V20.827C122.239 20.3937 122.113 20.0427 121.862 19.774C121.61 19.5053 121.277 19.371 120.861 19.371C120.453 19.371 120.12 19.5053 119.86 19.774C119.6 20.0427 119.47 20.3893 119.47 20.814V24.87C119.47 24.9567 119.426 25 119.34 25H118.352C118.265 25 118.222 24.9567 118.222 24.87V18.513C118.222 18.4263 118.265 18.383 118.352 18.383H119.34C119.426 18.383 119.47 18.4263 119.47 18.513V18.981C119.47 18.9983 119.474 19.0113 119.483 19.02C119.5 19.0287 119.513 19.0243 119.522 19.007C119.894 18.5303 120.445 18.292 121.173 18.292Z" fill="#EB5B55"/>
</svg>
