<svg width="210" height="70" viewBox="0 0 210 70" fill="none" xmlns="http://www.w3.org/2000/svg">
<rect width="210" height="70" rx="4" fill="#EB5B55"/>
<path fill-rule="evenodd" clip-rule="evenodd" d="M46.1027 34.9692C46.0537 29.526 50.5533 26.8758 50.7591 26.7526C48.2111 23.0328 44.2617 22.5232 42.8757 22.4812C39.5591 22.134 36.3419 24.4734 34.6493 24.4734C32.9287 24.4734 30.3261 22.5176 27.5233 22.575C23.9113 22.631 20.5387 24.7226 18.6865 27.9734C14.8645 34.601 17.7135 44.3394 21.3745 49.6958C23.2057 52.3236 25.3463 55.2496 28.1463 55.1502C30.8833 55.0368 31.9109 53.3988 35.2177 53.3988C38.4923 53.3988 39.4541 55.1502 42.3101 55.0788C45.2529 55.0368 47.1037 52.4454 48.8705 49.798C50.9845 46.7936 51.8371 43.8312 51.8707 43.6786C51.8035 43.6548 46.1615 41.496 46.1027 34.9692Z" fill="white"/>
<path fill-rule="evenodd" clip-rule="evenodd" d="M40.7084 18.9602C42.1812 17.1122 43.1892 14.6006 42.9106 12.0498C40.777 12.1436 38.1086 13.5282 36.5714 15.3328C35.2134 16.926 34.001 19.5356 34.3118 21.9884C36.71 22.1662 39.1698 20.7774 40.7084 18.9602Z" fill="white"/>
<path d="M78.168 53C78.024 53 77.928 52.936 77.88 52.808L77.016 50C77 49.952 76.968 49.928 76.92 49.928H70.176C70.128 49.928 70.096 49.952 70.08 50L69.216 52.808C69.168 52.936 69.072 53 68.928 53H66.984C66.808 53 66.744 52.912 66.792 52.736L72.048 36.392C72.096 36.264 72.192 36.2 72.336 36.2H74.736C74.88 36.2 74.976 36.264 75.024 36.392L80.328 52.736L80.352 52.832C80.352 52.944 80.28 53 80.136 53H78.168ZM70.68 47.984C70.664 48.016 70.664 48.048 70.68 48.08C70.712 48.096 70.744 48.104 70.776 48.104H76.296C76.328 48.104 76.352 48.096 76.368 48.08C76.4 48.048 76.408 48.016 76.392 47.984L73.608 39.08C73.592 39.048 73.568 39.032 73.536 39.032C73.504 39.032 73.48 39.048 73.464 39.08L70.68 47.984ZM92.2092 43.856C92.5132 44.72 92.6652 45.744 92.6652 46.928C92.6652 48.048 92.5372 49.016 92.2812 49.832C91.9452 50.904 91.3932 51.736 90.6252 52.328C89.8572 52.904 88.8732 53.192 87.6732 53.192C87.1292 53.192 86.6092 53.088 86.1132 52.88C85.6332 52.656 85.2172 52.344 84.8652 51.944C84.8332 51.912 84.8012 51.904 84.7692 51.92C84.7532 51.936 84.7452 51.96 84.7452 51.992V57.344C84.7452 57.504 84.6652 57.584 84.5052 57.584H82.6812C82.5212 57.584 82.4412 57.504 82.4412 57.344V41.024C82.4412 40.864 82.5212 40.784 82.6812 40.784H84.5052C84.6652 40.784 84.7452 40.864 84.7452 41.024V41.816C84.7452 41.848 84.7532 41.872 84.7692 41.888C84.8012 41.904 84.8332 41.896 84.8652 41.864C85.2172 41.464 85.6332 41.152 86.1132 40.928C86.5932 40.704 87.1132 40.592 87.6732 40.592C88.8252 40.592 89.7772 40.88 90.5292 41.456C91.2972 42.016 91.8572 42.816 92.2092 43.856ZM89.5692 50.048C90.0812 49.28 90.3372 48.224 90.3372 46.88C90.3372 45.648 90.1372 44.656 89.7372 43.904C89.2732 43.024 88.5132 42.584 87.4572 42.584C86.5292 42.584 85.8252 43.016 85.3452 43.88C84.9612 44.568 84.7692 45.576 84.7692 46.904C84.7692 48.248 84.9772 49.272 85.3932 49.976C85.8572 50.792 86.5372 51.2 87.4332 51.2C88.3932 51.2 89.1052 50.816 89.5692 50.048ZM105.092 43.856C105.396 44.72 105.548 45.744 105.548 46.928C105.548 48.048 105.42 49.016 105.164 49.832C104.828 50.904 104.276 51.736 103.508 52.328C102.74 52.904 101.756 53.192 100.556 53.192C100.012 53.192 99.492 53.088 98.996 52.88C98.516 52.656 98.1 52.344 97.748 51.944C97.716 51.912 97.684 51.904 97.652 51.92C97.636 51.936 97.628 51.96 97.628 51.992V57.344C97.628 57.504 97.548 57.584 97.388 57.584H95.564C95.404 57.584 95.324 57.504 95.324 57.344V41.024C95.324 40.864 95.404 40.784 95.564 40.784H97.388C97.548 40.784 97.628 40.864 97.628 41.024V41.816C97.628 41.848 97.636 41.872 97.652 41.888C97.684 41.904 97.716 41.896 97.748 41.864C98.1 41.464 98.516 41.152 98.996 40.928C99.476 40.704 99.996 40.592 100.556 40.592C101.708 40.592 102.66 40.88 103.412 41.456C104.18 42.016 104.74 42.816 105.092 43.856ZM102.452 50.048C102.964 49.28 103.22 48.224 103.22 46.88C103.22 45.648 103.02 44.656 102.62 43.904C102.156 43.024 101.396 42.584 100.34 42.584C99.412 42.584 98.708 43.016 98.228 43.88C97.844 44.568 97.652 45.576 97.652 46.904C97.652 48.248 97.86 49.272 98.276 49.976C98.74 50.792 99.42 51.2 100.316 51.2C101.276 51.2 101.988 50.816 102.452 50.048ZM117.84 53.192C116.608 53.192 115.536 53 114.624 52.616C113.728 52.232 113.032 51.688 112.536 50.984C112.056 50.28 111.816 49.456 111.816 48.512V47.816C111.816 47.656 111.896 47.576 112.056 47.576H113.808C113.968 47.576 114.048 47.656 114.048 47.816V48.392C114.048 49.208 114.4 49.88 115.104 50.408C115.808 50.936 116.776 51.2 118.008 51.2C119.112 51.2 119.944 50.968 120.504 50.504C121.064 50.04 121.344 49.432 121.344 48.68C121.344 48.184 121.2 47.76 120.912 47.408C120.624 47.056 120.2 46.736 119.64 46.448C119.096 46.144 118.296 45.784 117.24 45.368C116.072 44.92 115.144 44.512 114.456 44.144C113.784 43.776 113.224 43.296 112.776 42.704C112.328 42.096 112.104 41.336 112.104 40.424C112.104 39.048 112.592 37.968 113.568 37.184C114.56 36.4 115.896 36.008 117.576 36.008C118.76 36.008 119.8 36.208 120.696 36.608C121.592 37.008 122.28 37.568 122.76 38.288C123.256 39.008 123.504 39.84 123.504 40.784V41.264C123.504 41.424 123.424 41.504 123.264 41.504H121.464C121.304 41.504 121.224 41.424 121.224 41.264V40.904C121.224 40.072 120.888 39.384 120.216 38.84C119.56 38.28 118.648 38 117.48 38C116.488 38 115.72 38.208 115.176 38.624C114.632 39.024 114.36 39.608 114.36 40.376C114.36 40.904 114.496 41.336 114.768 41.672C115.04 42.008 115.44 42.312 115.968 42.584C116.512 42.84 117.336 43.176 118.44 43.592C119.576 44.04 120.496 44.456 121.2 44.84C121.904 45.208 122.488 45.704 122.952 46.328C123.416 46.936 123.648 47.696 123.648 48.608C123.648 50.016 123.128 51.136 122.088 51.968C121.064 52.784 119.648 53.192 117.84 53.192ZM132.001 42.44C132.001 42.6 131.921 42.68 131.761 42.68H129.169C129.105 42.68 129.073 42.712 129.073 42.776V49.136C129.073 49.808 129.225 50.296 129.529 50.6C129.833 50.888 130.305 51.032 130.945 51.032H131.641C131.801 51.032 131.881 51.112 131.881 51.272V52.76C131.881 52.92 131.801 53 131.641 53C131.129 53.032 130.761 53.048 130.537 53.048C129.321 53.048 128.401 52.832 127.777 52.4C127.169 51.952 126.865 51.136 126.865 49.952V42.776C126.865 42.712 126.833 42.68 126.769 42.68H125.305C125.145 42.68 125.065 42.6 125.065 42.44V41.024C125.065 40.864 125.145 40.784 125.305 40.784H126.769C126.833 40.784 126.865 40.752 126.865 40.688V37.856C126.865 37.696 126.945 37.616 127.105 37.616H128.833C128.993 37.616 129.073 37.696 129.073 37.856V40.688C129.073 40.752 129.105 40.784 129.169 40.784H131.761C131.921 40.784 132.001 40.864 132.001 41.024V42.44ZM139.047 53.192C137.863 53.192 136.831 52.896 135.951 52.304C135.071 51.696 134.455 50.856 134.103 49.784C133.815 48.92 133.671 47.944 133.671 46.856C133.671 45.72 133.807 44.76 134.079 43.976C134.431 42.92 135.047 42.096 135.927 41.504C136.807 40.896 137.855 40.592 139.071 40.592C140.223 40.592 141.223 40.896 142.071 41.504C142.935 42.096 143.551 42.912 143.919 43.952C144.207 44.768 144.351 45.728 144.351 46.832C144.351 47.952 144.207 48.936 143.919 49.784C143.567 50.856 142.959 51.696 142.095 52.304C141.231 52.896 140.215 53.192 139.047 53.192ZM139.047 51.2C139.687 51.2 140.247 51.024 140.727 50.672C141.207 50.304 141.551 49.792 141.759 49.136C141.935 48.528 142.023 47.776 142.023 46.88C142.023 45.984 141.943 45.24 141.783 44.648C141.575 43.992 141.231 43.488 140.751 43.136C140.271 42.768 139.687 42.584 138.999 42.584C138.343 42.584 137.775 42.768 137.295 43.136C136.815 43.488 136.471 43.992 136.263 44.648C136.087 45.208 135.999 45.952 135.999 46.88C135.999 47.808 136.087 48.56 136.263 49.136C136.455 49.792 136.791 50.304 137.271 50.672C137.767 51.024 138.359 51.2 139.047 51.2ZM152.22 40.664C152.732 40.664 153.196 40.768 153.612 40.976C153.724 41.024 153.764 41.12 153.732 41.264L153.348 43.064C153.332 43.208 153.236 43.256 153.06 43.208C152.788 43.096 152.468 43.04 152.1 43.04L151.764 43.064C151.012 43.096 150.388 43.36 149.892 43.856C149.412 44.336 149.172 44.968 149.172 45.752V52.76C149.172 52.92 149.092 53 148.932 53H147.108C146.948 53 146.868 52.92 146.868 52.76V41.024C146.868 40.864 146.948 40.784 147.108 40.784H148.932C149.092 40.784 149.172 40.864 149.172 41.024V42.296C149.172 42.344 149.18 42.376 149.196 42.392C149.228 42.392 149.252 42.376 149.268 42.344C149.988 41.224 150.972 40.664 152.22 40.664ZM164.974 45.368C165.038 46.024 165.062 46.76 165.046 47.576C165.046 47.736 164.966 47.816 164.806 47.816H157.15C157.086 47.816 157.054 47.848 157.054 47.912C157.054 48.456 157.102 48.872 157.198 49.16C157.374 49.8 157.726 50.304 158.254 50.672C158.798 51.024 159.478 51.2 160.294 51.2C161.478 51.2 162.39 50.712 163.03 49.736C163.11 49.576 163.214 49.552 163.342 49.664L164.71 50.576C164.822 50.672 164.846 50.776 164.782 50.888C164.334 51.608 163.694 52.176 162.862 52.592C162.046 53.008 161.118 53.216 160.078 53.216C158.91 53.216 157.926 52.96 157.126 52.448C156.326 51.936 155.726 51.208 155.326 50.264C154.942 49.32 154.75 48.176 154.75 46.832C154.75 45.664 154.838 44.776 155.014 44.168C155.302 43.064 155.878 42.192 156.742 41.552C157.606 40.912 158.654 40.592 159.886 40.592C161.502 40.592 162.71 41 163.51 41.816C164.31 42.616 164.798 43.8 164.974 45.368ZM159.886 42.584C159.198 42.584 158.63 42.76 158.182 43.112C157.734 43.448 157.43 43.904 157.27 44.48C157.158 44.832 157.086 45.28 157.054 45.824C157.054 45.888 157.086 45.92 157.15 45.92H162.646C162.71 45.92 162.742 45.888 162.742 45.824C162.71 45.296 162.662 44.904 162.598 44.648C162.438 44.024 162.118 43.528 161.638 43.16C161.174 42.776 160.59 42.584 159.886 42.584Z" fill="white"/>
<path d="M67.104 24C67.024 24 66.984 23.96 66.984 23.88V15.72C66.984 15.64 67.024 15.6 67.104 15.6H70.008C70.84 15.6 71.504 15.82 72 16.26C72.496 16.692 72.744 17.272 72.744 18V21.6C72.744 22.328 72.496 22.912 72 23.352C71.504 23.784 70.84 24 70.008 24H67.104ZM68.136 22.956C68.136 22.988 68.152 23.004 68.184 23.004H70.056C70.52 23.004 70.888 22.864 71.16 22.584C71.44 22.296 71.584 21.912 71.592 21.432V18.168C71.592 17.688 71.452 17.308 71.172 17.028C70.9 16.74 70.528 16.596 70.056 16.596H68.184C68.152 16.596 68.136 16.612 68.136 16.644V22.956ZM76.254 24.096C75.662 24.096 75.146 23.948 74.706 23.652C74.266 23.348 73.958 22.928 73.782 22.392C73.638 21.96 73.566 21.472 73.566 20.928C73.566 20.36 73.634 19.88 73.77 19.488C73.946 18.96 74.254 18.548 74.694 18.252C75.134 17.948 75.658 17.796 76.266 17.796C76.842 17.796 77.342 17.948 77.766 18.252C78.198 18.548 78.506 18.956 78.69 19.476C78.834 19.884 78.906 20.364 78.906 20.916C78.906 21.476 78.834 21.968 78.69 22.392C78.514 22.928 78.21 23.348 77.778 23.652C77.346 23.948 76.838 24.096 76.254 24.096ZM76.254 23.1C76.574 23.1 76.854 23.012 77.094 22.836C77.334 22.652 77.506 22.396 77.61 22.068C77.698 21.764 77.742 21.388 77.742 20.94C77.742 20.492 77.702 20.12 77.622 19.824C77.518 19.496 77.346 19.244 77.106 19.068C76.866 18.884 76.574 18.792 76.23 18.792C75.902 18.792 75.618 18.884 75.378 19.068C75.138 19.244 74.966 19.496 74.862 19.824C74.774 20.104 74.73 20.476 74.73 20.94C74.73 21.404 74.774 21.78 74.862 22.068C74.958 22.396 75.126 22.652 75.366 22.836C75.614 23.012 75.91 23.1 76.254 23.1ZM80.989 24C80.925 24 80.881 23.968 80.857 23.904L79.129 18.024L79.117 17.988C79.117 17.924 79.157 17.892 79.237 17.892H80.173C80.245 17.892 80.289 17.928 80.305 18L81.445 22.356C81.453 22.372 81.461 22.38 81.469 22.38C81.485 22.38 81.497 22.372 81.505 22.356L82.669 18C82.685 17.928 82.729 17.892 82.801 17.892H83.629C83.701 17.892 83.745 17.928 83.761 18L84.949 22.344C84.957 22.36 84.965 22.368 84.973 22.368C84.989 22.368 85.001 22.36 85.009 22.344L86.197 18C86.213 17.928 86.257 17.892 86.329 17.892L87.253 17.904C87.293 17.904 87.321 17.916 87.337 17.94C87.361 17.964 87.369 17.996 87.361 18.036L85.621 23.904C85.597 23.968 85.553 24 85.489 24H84.553C84.489 24 84.445 23.968 84.421 23.904L83.245 19.848C83.237 19.832 83.225 19.824 83.209 19.824C83.201 19.824 83.193 19.832 83.185 19.848L82.069 23.892C82.053 23.964 82.009 24 81.937 24H80.989ZM90.7749 17.808C91.4309 17.808 91.9509 18 92.3349 18.384C92.7189 18.76 92.9109 19.272 92.9109 19.92V23.88C92.9109 23.96 92.8709 24 92.7909 24H91.8789C91.7989 24 91.7589 23.96 91.7589 23.88V20.148C91.7589 19.748 91.6429 19.424 91.4109 19.176C91.1789 18.928 90.8709 18.804 90.4869 18.804C90.1109 18.804 89.8029 18.928 89.5629 19.176C89.3229 19.424 89.2029 19.744 89.2029 20.136V23.88C89.2029 23.96 89.1629 24 89.0829 24H88.1709C88.0909 24 88.0509 23.96 88.0509 23.88V18.012C88.0509 17.932 88.0909 17.892 88.1709 17.892H89.0829C89.1629 17.892 89.2029 17.932 89.2029 18.012V18.444C89.2029 18.46 89.2069 18.472 89.2149 18.48C89.2309 18.488 89.2429 18.484 89.2509 18.468C89.5949 18.028 90.1029 17.808 90.7749 17.808ZM94.1748 24C94.0948 24 94.0548 23.96 94.0548 23.88V15.72C94.0548 15.64 94.0948 15.6 94.1748 15.6H95.0868C95.1668 15.6 95.2068 15.64 95.2068 15.72V23.88C95.2068 23.96 95.1668 24 95.0868 24H94.1748ZM98.8751 24.096C98.2831 24.096 97.7671 23.948 97.3271 23.652C96.8871 23.348 96.5791 22.928 96.4031 22.392C96.2591 21.96 96.1871 21.472 96.1871 20.928C96.1871 20.36 96.2551 19.88 96.3911 19.488C96.5671 18.96 96.8751 18.548 97.3151 18.252C97.7551 17.948 98.2791 17.796 98.8871 17.796C99.4631 17.796 99.9631 17.948 100.387 18.252C100.819 18.548 101.127 18.956 101.311 19.476C101.455 19.884 101.527 20.364 101.527 20.916C101.527 21.476 101.455 21.968 101.311 22.392C101.135 22.928 100.831 23.348 100.399 23.652C99.9671 23.948 99.4591 24.096 98.8751 24.096ZM98.8751 23.1C99.1951 23.1 99.4751 23.012 99.7151 22.836C99.9551 22.652 100.127 22.396 100.231 22.068C100.319 21.764 100.363 21.388 100.363 20.94C100.363 20.492 100.323 20.12 100.243 19.824C100.139 19.496 99.9671 19.244 99.7271 19.068C99.4871 18.884 99.1951 18.792 98.8511 18.792C98.5231 18.792 98.2391 18.884 97.9991 19.068C97.7591 19.244 97.5871 19.496 97.4831 19.824C97.3951 20.104 97.3511 20.476 97.3511 20.94C97.3511 21.404 97.3951 21.78 97.4831 22.068C97.5791 22.396 97.7471 22.652 97.9871 22.836C98.2351 23.012 98.5311 23.1 98.8751 23.1ZM104.767 17.796C105.255 17.796 105.679 17.884 106.039 18.06C106.407 18.228 106.687 18.468 106.879 18.78C107.079 19.084 107.179 19.432 107.179 19.824V23.88C107.179 23.96 107.139 24 107.059 24H106.147C106.067 24 106.027 23.96 106.027 23.88V23.448C106.027 23.408 106.007 23.4 105.967 23.424C105.759 23.64 105.503 23.808 105.199 23.928C104.903 24.04 104.571 24.096 104.203 24.096C103.611 24.096 103.119 23.948 102.727 23.652C102.343 23.348 102.151 22.892 102.151 22.284C102.151 21.66 102.367 21.172 102.799 20.82C103.239 20.46 103.851 20.28 104.635 20.28H105.979C106.011 20.28 106.027 20.264 106.027 20.232V19.908C106.027 19.556 105.923 19.284 105.715 19.092C105.515 18.892 105.207 18.792 104.791 18.792C104.455 18.792 104.179 18.86 103.963 18.996C103.755 19.124 103.627 19.3 103.579 19.524C103.555 19.604 103.507 19.64 103.435 19.632L102.463 19.5C102.383 19.484 102.347 19.452 102.355 19.404C102.419 18.932 102.671 18.548 103.111 18.252C103.551 17.948 104.103 17.796 104.767 17.796ZM104.455 23.124C104.879 23.124 105.247 23.012 105.559 22.788C105.871 22.564 106.027 22.28 106.027 21.936V21.228C106.027 21.196 106.011 21.18 105.979 21.18H104.851C104.379 21.18 104.003 21.272 103.723 21.456C103.443 21.64 103.303 21.896 103.303 22.224C103.303 22.52 103.407 22.744 103.615 22.896C103.831 23.048 104.111 23.124 104.455 23.124ZM112.027 15.72C112.027 15.64 112.067 15.6 112.147 15.6H113.059C113.139 15.6 113.179 15.64 113.179 15.72V23.88C113.179 23.96 113.139 24 113.059 24H112.147C112.067 24 112.027 23.96 112.027 23.88V23.484C112.027 23.468 112.019 23.456 112.003 23.448C111.995 23.44 111.983 23.444 111.967 23.46C111.791 23.66 111.583 23.816 111.343 23.928C111.103 24.04 110.843 24.096 110.563 24.096C109.987 24.096 109.507 23.956 109.123 23.676C108.747 23.388 108.471 22.984 108.295 22.464C108.143 22.04 108.067 21.528 108.067 20.928C108.067 20.368 108.131 19.884 108.259 19.476C108.427 18.948 108.703 18.536 109.087 18.24C109.471 17.944 109.963 17.796 110.563 17.796C110.835 17.796 111.091 17.852 111.331 17.964C111.579 18.068 111.791 18.22 111.967 18.42C111.983 18.436 111.995 18.44 112.003 18.432C112.019 18.424 112.027 18.412 112.027 18.396V15.72ZM111.727 22.452C111.911 22.116 112.003 21.612 112.003 20.94C112.003 20.268 111.903 19.756 111.703 19.404C111.471 18.996 111.131 18.792 110.683 18.792C110.203 18.792 109.847 18.984 109.615 19.368C109.359 19.768 109.231 20.296 109.231 20.952C109.231 21.568 109.331 22.064 109.531 22.44C109.763 22.88 110.143 23.1 110.671 23.1C111.135 23.1 111.487 22.884 111.727 22.452ZM118.502 17.796C118.99 17.796 119.414 17.884 119.774 18.06C120.142 18.228 120.422 18.468 120.614 18.78C120.814 19.084 120.914 19.432 120.914 19.824V23.88C120.914 23.96 120.874 24 120.794 24H119.882C119.802 24 119.762 23.96 119.762 23.88V23.448C119.762 23.408 119.742 23.4 119.702 23.424C119.494 23.64 119.238 23.808 118.934 23.928C118.638 24.04 118.306 24.096 117.938 24.096C117.346 24.096 116.854 23.948 116.462 23.652C116.078 23.348 115.886 22.892 115.886 22.284C115.886 21.66 116.102 21.172 116.534 20.82C116.974 20.46 117.586 20.28 118.37 20.28H119.714C119.746 20.28 119.762 20.264 119.762 20.232V19.908C119.762 19.556 119.658 19.284 119.45 19.092C119.25 18.892 118.942 18.792 118.526 18.792C118.19 18.792 117.914 18.86 117.698 18.996C117.49 19.124 117.362 19.3 117.314 19.524C117.29 19.604 117.242 19.64 117.17 19.632L116.198 19.5C116.118 19.484 116.082 19.452 116.09 19.404C116.154 18.932 116.406 18.548 116.846 18.252C117.286 17.948 117.838 17.796 118.502 17.796ZM118.19 23.124C118.614 23.124 118.982 23.012 119.294 22.788C119.606 22.564 119.762 22.28 119.762 21.936V21.228C119.762 21.196 119.746 21.18 119.714 21.18H118.586C118.114 21.18 117.738 21.272 117.458 21.456C117.178 21.64 117.038 21.896 117.038 22.224C117.038 22.52 117.142 22.744 117.35 22.896C117.566 23.048 117.846 23.124 118.19 23.124ZM124.899 18.72C124.899 18.8 124.859 18.84 124.779 18.84H123.483C123.451 18.84 123.435 18.856 123.435 18.888V22.068C123.435 22.404 123.511 22.648 123.663 22.8C123.815 22.944 124.051 23.016 124.371 23.016H124.719C124.799 23.016 124.839 23.056 124.839 23.136V23.88C124.839 23.96 124.799 24 124.719 24C124.463 24.016 124.279 24.024 124.167 24.024C123.559 24.024 123.099 23.916 122.787 23.7C122.483 23.476 122.331 23.068 122.331 22.476V18.888C122.331 18.856 122.315 18.84 122.283 18.84H121.551C121.471 18.84 121.431 18.8 121.431 18.72V18.012C121.431 17.932 121.471 17.892 121.551 17.892H122.283C122.315 17.892 122.331 17.876 122.331 17.844V16.428C122.331 16.348 122.371 16.308 122.451 16.308H123.315C123.395 16.308 123.435 16.348 123.435 16.428V17.844C123.435 17.876 123.451 17.892 123.483 17.892H124.779C124.859 17.892 124.899 17.932 124.899 18.012V18.72Z" fill="white"/>
</svg>
