<svg width="150" height="49" viewBox="0 0 150 49" fill="none" xmlns="http://www.w3.org/2000/svg">
<g clip-path="url(#clip0_328_17456)">
<mask id="mask0_328_17456" style="mask-type:luminance" maskUnits="userSpaceOnUse" x="5" y="2" width="45" height="45">
<path d="M42.5 47H12.5C8.35786 47 5 43.6421 5 39.5V9.5C5 5.35786 8.35786 2 12.5 2H42.5C46.6421 2 50 5.35786 50 9.5V39.5C50 43.6421 46.6421 47 42.5 47Z" fill="white"/>
</mask>
<g mask="url(#mask0_328_17456)">
<path d="M42.5 47H12.5C8.35786 47 5 43.6421 5 39.5V9.5C5 5.35786 8.35786 2 12.5 2H42.5C46.6421 2 50 5.35786 50 9.5V39.5C50 43.6421 46.6421 47 42.5 47Z" fill="white" fill-opacity="0.7"/>
<path fill-rule="evenodd" clip-rule="evenodd" d="M42.7522 43.0916C43.1614 43.0915 43.3695 42.6282 43.0854 42.3495L12.8762 12.7177C12.5862 12.4332 12.0776 12.626 12.0776 13.0204L12.0771 25.1753L29.0848 41.7539C29.9618 42.6088 31.1682 43.0916 32.4274 43.0916H42.7522Z" fill="#EE8080"/>
<path fill-rule="evenodd" clip-rule="evenodd" d="M42.7434 7.19339C43.1525 7.19339 43.3606 7.65677 43.0766 7.9354L12.8675 37.5672C12.5774 37.8517 12.0688 37.659 12.0688 37.2646L12.0684 25.1097L29.076 8.531C29.953 7.67612 31.1594 7.19336 32.4186 7.19336L42.7434 7.19339Z" fill="#FFB4B4"/>
<path d="M35.678 24.1265C35.2278 24.4881 35.2278 25.1734 35.678 25.535L42.3529 30.8948C42.7962 31.2508 43.4543 30.9352 43.4543 30.3667V19.2948C43.4543 18.7263 42.7962 18.4107 42.3529 18.7667L35.678 24.1265Z" fill="#FDA1A1"/>
</g>
<path d="M59.7565 23.685L65.0002 23.0681C66.7275 24.8983 68.2698 26.5331 69.627 27.9725C70.9842 29.412 72.0843 30.5635 72.9274 31.4272C72.9274 32.2086 72.6704 32.8255 72.1563 33.2779C71.6422 33.7097 71.0458 33.9256 70.3672 33.9256C69.627 33.9256 69.0203 33.7406 68.5474 33.3704C68.0744 33.0003 67.622 32.5685 67.1902 32.0749L59.7565 23.685ZM65.1236 25.3198L59.1396 25.5974L68.825 14.74C69.9971 14.74 70.8505 14.9764 71.3851 15.4494C71.9198 15.9018 72.1871 16.4364 72.1871 17.0533C72.1871 17.5263 72.0637 17.9787 71.817 18.4105C71.5908 18.8218 71.2103 19.2742 70.6757 19.7677L65.1236 25.3198ZM57.1964 20.5388H61.8848V33.5863C61.6998 33.648 61.4016 33.7097 60.9903 33.7714C60.5791 33.8331 60.1575 33.8639 59.7257 33.8639C58.8003 33.8639 58.1423 33.6994 57.7516 33.3704C57.3814 33.0208 57.1964 32.4451 57.1964 31.6431V20.5388ZM61.8848 26.4611H57.1964V14.8633C57.402 14.8222 57.7105 14.7708 58.1217 14.7091C58.5536 14.6474 58.9648 14.6166 59.3555 14.6166C60.2603 14.6166 60.9081 14.7708 61.2988 15.0793C61.6895 15.3877 61.8848 15.9738 61.8848 16.8374V26.4611ZM83.5297 34.1416C81.8435 34.1416 80.3938 33.8434 79.1805 33.247C77.9878 32.6301 77.0625 31.7768 76.4045 30.6869C75.767 29.597 75.4483 28.3221 75.4483 26.8621V24.8263H80.1676V26.7387C80.1676 27.8697 80.476 28.7539 81.0929 29.3914C81.7304 30.0083 82.5426 30.3168 83.5297 30.3168C84.5167 30.3168 85.3187 30.0083 85.9356 29.3914C86.5731 28.7539 86.8918 27.8697 86.8918 26.7387V24.8263H91.6111V26.8621C91.6111 28.3221 91.2924 29.597 90.6549 30.6869C90.0175 31.7768 89.0921 32.6301 87.8789 33.247C86.6656 33.8434 85.2159 34.1416 83.5297 34.1416ZM80.1676 25.7517H75.4483V14.8633C75.6745 14.8222 75.9932 14.7708 76.4045 14.7091C76.8157 14.6474 77.227 14.6166 77.6383 14.6166C78.5225 14.6166 79.16 14.7708 79.5507 15.0793C79.9619 15.3877 80.1676 15.9738 80.1676 16.8374V25.7517ZM91.6111 25.8134H86.8918V14.8633C87.118 14.8222 87.4367 14.7708 87.848 14.7091C88.2798 14.6474 88.6911 14.6166 89.0818 14.6166C89.966 14.6166 90.6035 14.7708 90.9942 15.0793C91.4055 15.3877 91.6111 15.9738 91.6111 16.8374V25.8134ZM103.189 18.8115H103.004C102.798 19.4695 102.551 20.1995 102.263 21.0015C101.996 21.8035 101.718 22.6466 101.43 23.5308C101.143 24.3945 100.865 25.2582 100.598 26.1218L100.042 28.8979C99.9191 29.2886 99.7957 29.6999 99.6723 30.1317C99.5695 30.5635 99.4564 30.9851 99.333 31.3963C99.2096 31.8076 99.0965 32.1983 98.9937 32.5685C98.8909 32.9386 98.7881 33.2882 98.6853 33.6172C98.4591 33.6789 98.202 33.7406 97.9141 33.8023C97.6262 33.8845 97.2869 33.9256 96.8962 33.9256C96.0326 33.9256 95.3745 33.7714 94.9222 33.463C94.4698 33.1545 94.2436 32.7021 94.2436 32.1058C94.2436 31.859 94.2744 31.602 94.3361 31.3346C94.4183 31.0673 94.5109 30.7589 94.6137 30.4093C94.7988 29.7307 95.0558 28.8773 95.3848 27.8491C95.7344 26.821 96.1046 25.7105 96.4953 24.5179C96.9065 23.3046 97.3178 22.1119 97.7291 20.9398C98.1609 19.7677 98.5516 18.6881 98.9012 17.7011C99.2713 16.714 99.5695 15.9429 99.7957 15.3877C100.084 15.2026 100.536 15.0381 101.153 14.8942C101.79 14.7297 102.418 14.6474 103.034 14.6474C103.919 14.6474 104.71 14.7811 105.41 15.0484C106.109 15.2952 106.551 15.6962 106.736 16.2514C107.127 17.3412 107.548 18.6059 108 20.0453C108.473 21.4642 108.946 22.955 109.419 24.5179C109.892 26.0807 110.345 27.6024 110.777 29.083C111.229 30.543 111.62 31.859 111.949 33.0311C111.722 33.2779 111.393 33.4835 110.962 33.648C110.53 33.8331 110.016 33.9256 109.419 33.9256C108.576 33.9256 107.98 33.7714 107.63 33.463C107.281 33.1545 107.013 32.6918 106.828 32.0749L105.841 28.6203L105.317 25.9984C105.07 25.0731 104.813 24.1786 104.546 23.3149C104.279 22.4512 104.032 21.639 103.806 20.8781C103.579 20.0967 103.374 19.4079 103.189 18.8115ZM97.9758 29.4531L99.7957 25.8134H107.013L107.63 29.4531H97.9758ZM114.76 20.5697H119.448V33.5863C119.263 33.648 118.965 33.6994 118.554 33.7406C118.143 33.8023 117.721 33.8331 117.289 33.8331C116.364 33.8331 115.706 33.6686 115.315 33.3396C114.945 33.0106 114.76 32.4348 114.76 31.6123V20.5697ZM119.448 26.492H114.76V14.8633C114.966 14.8222 115.274 14.7708 115.685 14.7091C116.117 14.6474 116.539 14.6166 116.95 14.6166C117.834 14.6166 118.472 14.7708 118.862 15.0793C119.253 15.3877 119.448 15.9738 119.448 16.8374V26.492ZM124.011 28.466L135.054 14.8325H136.472C137.254 15.47 137.645 16.3131 137.645 17.3618C137.645 17.8348 137.542 18.2871 137.336 18.719C137.131 19.1508 136.863 19.5724 136.534 19.9836L125.553 33.6172H123.888C123.579 33.3704 123.322 33.0311 123.117 32.5993C122.931 32.1675 122.839 31.6842 122.839 31.1496C122.839 30.6972 122.952 30.2448 123.178 29.7924C123.404 29.3194 123.682 28.8773 124.011 28.466ZM124.505 33.6172L126.695 29.7615H137.336C137.46 29.9672 137.573 30.2345 137.675 30.5635C137.799 30.8925 137.861 31.2524 137.861 31.6431C137.861 32.3217 137.706 32.8255 137.398 33.1545C137.11 33.463 136.699 33.6172 136.164 33.6172H124.505ZM135.578 14.8325L133.851 18.6881H123.61C123.487 18.4825 123.363 18.2255 123.24 17.917C123.137 17.588 123.086 17.2281 123.086 16.8374C123.086 16.1588 123.24 15.655 123.548 15.326C123.857 14.997 124.278 14.8325 124.813 14.8325H135.578ZM141.087 20.5697H145.775V33.5863C145.59 33.648 145.292 33.6994 144.881 33.7406C144.469 33.8023 144.048 33.8331 143.616 33.8331C142.691 33.8331 142.033 33.6686 141.642 33.3396C141.272 33.0106 141.087 32.4348 141.087 31.6123V20.5697ZM145.775 26.492H141.087V14.8633C141.292 14.8222 141.601 14.7708 142.012 14.7091C142.444 14.6474 142.865 14.6166 143.277 14.6166C144.161 14.6166 144.798 14.7708 145.189 15.0793C145.58 15.3877 145.775 15.9738 145.775 16.8374V26.492Z" fill="#EE8080"/>
</g>
<defs>
<clipPath id="clip0_328_17456">
<rect width="150" height="49" fill="white"/>
</clipPath>
</defs>
</svg>
