<svg width="150" height="49" viewBox="0 0 150 49" fill="none" xmlns="http://www.w3.org/2000/svg">
<g clip-path="url(#clip0_2207_5847)">
<g clip-path="url(#clip1_2207_5847)">
<rect width="45" height="45" rx="7.5" transform="matrix(1 0 0 -1 2 47)" fill="white" fill-opacity="0.7"/>
<path fill-rule="evenodd" clip-rule="evenodd" d="M39.752 43.0917C40.1612 43.0916 40.3693 42.6283 40.0852 42.3496L9.87609 12.7178C9.58607 12.4333 9.07747 12.6261 9.07746 13.0205L9.07699 25.1754L26.0846 41.754C26.9616 42.6089 28.168 43.0917 29.4272 43.0917L39.752 43.0917Z" fill="#EE8080"/>
<path fill-rule="evenodd" clip-rule="evenodd" d="M39.7434 7.19339C40.1525 7.19339 40.3606 7.65677 40.0766 7.9354L9.86746 37.5672C9.57744 37.8517 9.06884 37.659 9.06883 37.2646L9.06836 25.1097L26.076 8.531C26.953 7.67612 28.1594 7.19336 29.4186 7.19336L39.7434 7.19339Z" fill="#FFB4B4"/>
<path d="M32.6782 24.1266C32.228 24.4882 32.228 25.1735 32.6782 25.5351L39.3531 30.8949C39.7964 31.2509 40.4545 30.9353 40.4545 30.3668L40.4545 19.2949C40.4545 18.7264 39.7964 18.4108 39.3531 18.7668L32.6782 24.1266Z" fill="#FDA1A1"/>
</g>
<path d="M53.9238 13.2457H58.3124L57.0324 22.3429L63.341 13.2457H68.2324L61.0553 22.6629C61.8476 24.5829 62.6553 26.4724 63.4781 28.3314C64.3315 30.1905 65.1696 32.08 65.9924 34H60.7353L56.8038 23.8971L55.3867 34H50.9981L53.9238 13.2457ZM72.8589 13.2457H77.2475L75.6932 24.3086C75.297 26.6552 75.1599 28.2095 75.2818 28.9714C75.4342 29.7333 75.6627 30.2514 75.9675 30.5257C76.3027 30.8 76.7751 30.9371 77.3846 30.9371C79.0304 30.9371 80.0513 29.7029 80.4475 27.2343C80.5999 26.4114 80.7675 25.4362 80.9504 24.3086L82.4589 13.2457H86.8018L85.2475 24.3086C84.7599 27.9657 83.8913 30.5562 82.6418 32.08C81.3923 33.6343 79.4875 34.4114 76.9275 34.4114C74.4285 34.4114 72.737 33.6343 71.8532 32.08C70.9694 30.5257 70.7713 27.9352 71.2589 24.3086L72.8589 13.2457ZM100.402 17.3143C100.188 17.8324 99.9446 18.4876 99.6704 19.28C99.3961 20.0724 99.0913 20.9257 98.7561 21.84C98.4208 22.7238 98.0704 23.6533 97.7046 24.6286C97.3694 25.5733 97.0189 26.5029 96.6532 27.4171H101.133C101.072 26.5029 100.996 25.5733 100.905 24.6286C100.813 23.6533 100.737 22.7238 100.676 21.84C100.615 20.9257 100.554 20.0724 100.493 19.28C100.432 18.4876 100.402 17.8324 100.402 17.3143ZM98.4361 13.2457H103.693L106.436 34H101.819L101.407 30.3886H95.6018L94.1389 34H89.7504L98.4361 13.2457ZM114.034 34H109.645L112.571 13.2457H116.96L114.034 34ZM134.962 16.08C131.762 20.8952 128.516 25.6952 125.225 30.48H133.134L132.631 34H119.831L120.196 31.1657L129.979 16.7657H122.482L122.985 13.2457H135.374L134.962 16.08ZM142.474 34H138.085L141.011 13.2457H145.399L142.474 34Z" fill="#F56E6E"/>
</g>
<defs>
<clipPath id="clip0_2207_5847">
<rect width="150" height="49" fill="white"/>
</clipPath>
<clipPath id="clip1_2207_5847">
<rect width="45" height="45" rx="7.5" transform="matrix(1 0 0 -1 2 47)" fill="white"/>
</clipPath>
</defs>
</svg>
