<svg width="175" height="24" viewBox="0 0 175 24" fill="none" xmlns="http://www.w3.org/2000/svg">
<path d="M12.3507 19.064V21.728H0.926688V2.144H4.07069V19.064H12.3507ZM23.3121 22.04C21.6161 22.04 20.1041 21.608 18.7761 20.744C17.4641 19.896 16.4401 18.712 15.7041 17.192C14.9681 15.656 14.6001 13.904 14.6001 11.936C14.6001 9.968 14.9681 8.224 15.7041 6.704C16.4401 5.168 17.4641 3.976 18.7761 3.128C20.1041 2.264 21.6161 1.832 23.3121 1.832C25.0241 1.832 26.5361 2.256 27.8481 3.104C29.1761 3.952 30.2081 5.144 30.9441 6.68C31.6801 8.216 32.0481 9.968 32.0481 11.936C32.0481 13.904 31.6801 15.656 30.9441 17.192C30.2081 18.728 29.1761 19.92 27.8481 20.768C26.5361 21.616 25.0241 22.04 23.3121 22.04ZM23.3121 19.424C24.4001 19.424 25.3681 19.112 26.2161 18.488C27.0641 17.864 27.7201 16.984 28.1841 15.848C28.6481 14.712 28.8801 13.408 28.8801 11.936C28.8801 10.464 28.6481 9.16 28.1841 8.024C27.7201 6.888 27.0641 6.008 26.2161 5.384C25.3681 4.76 24.4001 4.448 23.3121 4.448C22.2241 4.448 21.2561 4.76 20.4081 5.384C19.5761 6.008 18.9281 6.888 18.4641 8.024C18.0001 9.16 17.7681 10.464 17.7681 11.936C17.7681 13.408 18.0001 14.712 18.4641 15.848C18.9281 16.984 19.5761 17.864 20.4081 18.488C21.2561 19.112 22.2241 19.424 23.3121 19.424ZM50.7443 14.216C50.7443 15.752 50.4643 17.112 49.9043 18.296C49.3443 19.48 48.5123 20.4 47.4083 21.056C46.3043 21.712 44.9523 22.04 43.3523 22.04C41.6563 22.04 40.1443 21.616 38.8163 20.768C37.4883 19.92 36.4563 18.736 35.7203 17.216C34.9843 15.68 34.6163 13.92 34.6163 11.936C34.6163 9.952 34.9843 8.2 35.7203 6.68C36.4563 5.144 37.4883 3.952 38.8163 3.104C40.1443 2.256 41.6643 1.832 43.3763 1.832C45.1683 1.832 46.6643 2.248 47.8643 3.08C49.0643 3.896 49.8723 5.008 50.2883 6.416L47.6963 7.664C47.0403 5.52 45.5763 4.448 43.3043 4.448C42.2163 4.448 41.2563 4.76 40.4243 5.384C39.5923 6.008 38.9443 6.888 38.4803 8.024C38.0163 9.16 37.7843 10.464 37.7843 11.936C37.7843 13.456 38.0083 14.784 38.4563 15.92C38.9203 17.04 39.5683 17.904 40.4003 18.512C41.2483 19.12 42.2323 19.424 43.3523 19.424C46.3603 19.424 47.8643 17.64 47.8643 14.072H43.9523V11.384H50.7443V14.216ZM62.2418 22.04C60.5458 22.04 59.0338 21.608 57.7058 20.744C56.3938 19.896 55.3698 18.712 54.6338 17.192C53.8978 15.656 53.5298 13.904 53.5298 11.936C53.5298 9.968 53.8978 8.224 54.6338 6.704C55.3698 5.168 56.3938 3.976 57.7058 3.128C59.0338 2.264 60.5458 1.832 62.2418 1.832C63.9538 1.832 65.4658 2.256 66.7778 3.104C68.1058 3.952 69.1378 5.144 69.8738 6.68C70.6098 8.216 70.9778 9.968 70.9778 11.936C70.9778 13.904 70.6098 15.656 69.8738 17.192C69.1378 18.728 68.1058 19.92 66.7778 20.768C65.4658 21.616 63.9538 22.04 62.2418 22.04ZM62.2418 19.424C63.3298 19.424 64.2978 19.112 65.1458 18.488C65.9938 17.864 66.6498 16.984 67.1138 15.848C67.5778 14.712 67.8098 13.408 67.8098 11.936C67.8098 10.464 67.5778 9.16 67.1138 8.024C66.6498 6.888 65.9938 6.008 65.1458 5.384C64.2978 4.76 63.3298 4.448 62.2418 4.448C61.1538 4.448 60.1858 4.76 59.3378 5.384C58.5058 6.008 57.8578 6.888 57.3938 8.024C56.9298 9.16 56.6978 10.464 56.6978 11.936C56.6978 13.408 56.9298 14.712 57.3938 15.848C57.8578 16.984 58.5058 17.864 59.3378 18.488C60.1858 19.112 61.1538 19.424 62.2418 19.424ZM101.265 1.184V22.328H81.4647V1.184H101.265ZM84.1527 19.784H98.4807V3.656H84.1527V19.784ZM89.9607 9.992V7.64H85.4247V5.384H97.2327V7.64H92.4807V9.992H96.9927V12.296H95.0727C95.3447 12.616 95.6247 12.968 95.9127 13.352C96.2007 13.736 96.5047 14.16 96.8247 14.624L95.6247 15.608H97.7367V18.008H84.9207V15.608H89.9607V12.296H85.7607V9.992H89.9607ZM94.3767 12.296H92.4807V15.608H95.0487C94.9207 15.416 94.7767 15.208 94.6167 14.984C94.4727 14.76 94.3127 14.544 94.1367 14.336C93.9767 14.112 93.8167 13.904 93.6567 13.712C93.4967 13.504 93.3607 13.328 93.2487 13.184L94.3767 12.296ZM112.713 1.544V4.112C112.201 5.952 111.577 7.696 110.841 9.344C111.193 9.92 111.489 10.464 111.729 10.976C111.969 11.472 112.161 11.952 112.305 12.416C112.449 12.864 112.545 13.312 112.593 13.76C112.641 14.192 112.657 14.64 112.641 15.104C112.609 15.776 112.521 16.336 112.377 16.784C112.233 17.216 112.041 17.568 111.801 17.84C111.577 18.112 111.305 18.312 110.985 18.44C110.681 18.568 110.345 18.656 109.977 18.704C109.705 18.736 109.417 18.76 109.113 18.776C108.825 18.792 108.569 18.8 108.345 18.8L107.841 16.232C108.017 16.264 108.201 16.288 108.393 16.304C108.601 16.32 108.817 16.32 109.041 16.304C109.249 16.304 109.425 16.288 109.569 16.256C109.713 16.208 109.825 16.12 109.905 15.992C110.001 15.848 110.065 15.648 110.097 15.392C110.145 15.136 110.169 14.8 110.169 14.384C110.169 13.664 110.033 12.944 109.761 12.224C109.489 11.488 109.017 10.648 108.345 9.704C108.713 8.744 109.049 7.816 109.353 6.92C109.657 6.008 109.929 5.072 110.169 4.112H107.625V22.976H105.225V1.544H112.713ZM114.945 20.288C115.361 20.336 115.713 20.368 116.001 20.384C116.289 20.4 116.585 20.4 116.889 20.384C117.081 20.384 117.241 20.368 117.369 20.336C117.497 20.32 117.593 20.272 117.657 20.192C117.737 20.128 117.793 20.024 117.825 19.88C117.857 19.736 117.873 19.536 117.873 19.28V10.376H112.593V7.64H126.177V10.376H120.489V19.928C120.489 20.408 120.449 20.816 120.369 21.152C120.289 21.488 120.153 21.768 119.961 21.992C119.769 22.232 119.505 22.416 119.169 22.544C118.833 22.688 118.409 22.792 117.897 22.856C117.481 22.92 117.049 22.952 116.601 22.952C116.153 22.968 115.745 22.968 115.377 22.952L114.945 20.288ZM125.193 1.928V4.616H113.721V1.928H125.193ZM111.249 19.952C111.585 19.392 111.913 18.768 112.233 18.08C112.569 17.392 112.881 16.696 113.169 15.992C113.473 15.272 113.745 14.56 113.985 13.856C114.241 13.152 114.465 12.496 114.657 11.888L117.129 12.632C116.905 13.352 116.649 14.096 116.361 14.864C116.089 15.616 115.801 16.36 115.497 17.096C115.193 17.816 114.873 18.52 114.537 19.208C114.217 19.88 113.897 20.488 113.577 21.032L111.249 19.952ZM123.129 11.888C123.417 12.352 123.729 12.904 124.065 13.544C124.401 14.168 124.753 14.904 125.121 15.752C125.489 16.6 125.809 17.392 126.081 18.128C126.369 18.864 126.593 19.488 126.753 20L124.329 21.032C124.169 20.52 123.961 19.928 123.705 19.256C123.449 18.568 123.137 17.792 122.769 16.928C122.049 15.232 121.425 13.912 120.897 12.968L123.129 11.888ZM138.057 3.8C138.025 3.64 137.985 3.48 137.937 3.32C137.905 3.144 137.873 2.96 137.841 2.768C137.761 2.352 137.673 2 137.577 1.712C137.497 1.408 137.417 1.144 137.337 0.92L140.097 0.368C140.273 0.911999 140.433 1.464 140.577 2.024C140.721 2.584 140.841 3.176 140.937 3.8H149.649V6.392H146.025C144.985 10.312 143.409 13.464 141.297 15.848C142.449 16.696 143.801 17.48 145.353 18.2C146.905 18.92 148.625 19.568 150.513 20.144L149.145 23.072C144.985 21.488 141.705 19.72 139.305 17.768C136.985 19.704 133.801 21.496 129.753 23.144L128.217 20.312C132.089 18.968 135.097 17.464 137.241 15.8C135.113 13.4 133.489 10.264 132.369 6.392H128.913V3.8H138.057ZM139.233 14C140.945 12.08 142.225 9.544 143.073 6.392H135.249C136.097 9.512 137.425 12.048 139.233 14ZM157.881 0.368C157.977 0.575999 158.073 0.831999 158.169 1.136C158.281 1.424 158.401 1.752 158.529 2.12C158.625 2.44 158.713 2.728 158.793 2.984C158.873 3.224 158.929 3.448 158.961 3.656H161.361V5.696C161.921 4.88 162.409 4.024 162.825 3.128C163.257 2.216 163.641 1.256 163.977 0.248L166.665 0.967999C166.537 1.288 166.417 1.584 166.305 1.856C166.209 2.112 166.105 2.368 165.993 2.624H173.913V5.12H164.745C164.473 5.6 164.193 6.08 163.905 6.56C163.617 7.04 163.297 7.52 162.945 8C164.641 7.808 166.305 7.544 167.937 7.208C169.585 6.856 171.065 6.448 172.377 5.984L173.217 8.312C172.609 8.536 171.977 8.736 171.321 8.912C170.681 9.088 169.953 9.272 169.137 9.464C169.025 9.496 168.889 9.528 168.729 9.56C168.809 10.168 168.897 10.744 168.993 11.288C169.105 11.816 169.225 12.328 169.353 12.824C169.913 12.52 170.489 12.168 171.081 11.768C171.689 11.368 172.273 10.952 172.833 10.52L174.177 12.656C173.921 12.848 173.625 13.064 173.289 13.304C172.969 13.528 172.633 13.76 172.281 14C171.929 14.224 171.569 14.448 171.201 14.672C170.833 14.88 170.489 15.072 170.169 15.248L170.385 15.728C170.801 16.608 171.345 17.456 172.017 18.272C172.705 19.072 173.529 19.824 174.489 20.528L172.689 22.712C171.729 21.928 170.881 21.08 170.145 20.168C169.425 19.256 168.817 18.264 168.321 17.192C167.441 15.272 166.801 12.88 166.401 10.016C165.857 10.112 165.361 10.184 164.913 10.232V19.52C165.473 19.296 165.961 19.072 166.377 18.848C166.809 18.624 167.281 18.352 167.793 18.032L168.417 20.6C167.457 21.112 166.497 21.552 165.537 21.92C164.577 22.304 163.569 22.648 162.513 22.952L161.601 20.696C161.905 20.552 162.113 20.336 162.225 20.048C162.337 19.776 162.393 19.536 162.393 19.328V8.696L162.129 9.008L160.089 7.352C160.249 7.176 160.401 6.992 160.545 6.8C160.689 6.608 160.833 6.416 160.977 6.224H156.921V8.744H161.025C161.025 10.92 161.001 12.912 160.953 14.72C160.921 16.528 160.865 18.176 160.785 19.664C160.753 20.448 160.553 21.056 160.185 21.488C159.833 21.936 159.153 22.224 158.145 22.352C157.569 22.432 157.017 22.456 156.489 22.424L155.937 19.784C156.209 19.816 156.465 19.84 156.705 19.856C156.961 19.856 157.177 19.856 157.353 19.856C157.769 19.856 158.041 19.752 158.169 19.544C158.313 19.336 158.401 18.896 158.433 18.224C158.497 17.2 158.545 16.112 158.577 14.96C158.609 13.792 158.625 12.552 158.625 11.24H156.873C156.809 12.52 156.713 13.664 156.585 14.672C156.473 15.68 156.329 16.568 156.153 17.336C155.945 18.248 155.673 19.152 155.337 20.048C155.001 20.96 154.585 21.896 154.089 22.856L151.809 21.68C152.289 20.704 152.689 19.792 153.009 18.944C153.329 18.08 153.577 17.272 153.753 16.52C153.929 15.752 154.065 14.816 154.161 13.712C154.273 12.608 154.329 11.304 154.329 9.8V6.224H152.721V3.656H156.249L155.961 2.672C155.753 1.984 155.561 1.424 155.385 0.991999L157.881 0.368Z" fill="white"/>
</svg>
